<?xml version="1.0" encoding="UTF-8"?>
<svg id="Layer_2" xmlns="http://www.w3.org/2000/svg" viewBox="0 0 41.71 63.98">
  <defs>
    <style>
      .cls-1 {
        fill: #fff;
      }
    </style>
  </defs>
  <g id="Layer_2-2" data-name="Layer_2">
    <rect class="cls-1" x="0" y="30.37" width="41.71" height="3.11" rx="1.56" ry="1.56"/>
    <path class="cls-1" d="M39.1,33.48H2.61C1.17,33.48,0,34.66,0,36.09v25.28C0,62.81,1.17,63.98,2.61,63.98h36.49c1.43,0,2.61-1.17,2.61-2.61v-25.28c0-1.43-1.17-2.61-2.61-2.61ZM13.48,45.93h-2.8v2.8c0,.86-.7,1.56-1.56,1.56s-1.56-.7-1.56-1.56v-2.8h-2.8c-.86,0-1.56-.7-1.56-1.56s.7-1.56,1.56-1.56h2.8v-2.8c0-.86.7-1.56,1.56-1.56s1.56.7,1.56,1.56v2.8h2.8c.86,0,1.56.7,1.56,1.56s-.7,1.56-1.56,1.56ZM18.15,60.87c-.69,0-1.25-.56-1.25-1.25s.56-1.24,1.25-1.24,1.24.56,1.24,1.24-.56,1.25-1.24,1.25ZM23.75,60.87c-.69,0-1.24-.56-1.24-1.25s.56-1.24,1.24-1.24,1.25.56,1.25,1.24-.56,1.25-1.25,1.25ZM28.42,48.42c-1.2,0-2.18-.98-2.18-2.18s.98-2.18,2.18-2.18,2.18.98,2.18,2.18-.98,2.18-2.18,2.18ZM34.02,44.06c-1.2,0-2.18-.98-2.18-2.18s.98-2.18,2.18-2.18,2.18.98,2.18,2.18-.98,2.18-2.18,2.18Z"/>
    <path class="cls-1" d="M39.17,0H2.53C1.14,0,0,1.14,0,2.53v25.43C0,29.36,1.14,30.5,2.53,30.5h36.64c1.39,0,2.53-1.14,2.53-2.53V2.53c0-1.39-1.14-2.53-2.53-2.53ZM35.46,23.38c0,.3-.25.55-.55.55H6.8c-.3,0-.55-.25-.55-.55V4.64c0-.3.25-.55.55-.55h28.1c.3,0,.55.25.55.55v18.74Z"/>
    <g>
      <path class="cls-1" d="M19.95,13.65c.11-.41.46-.71.9-.71s.79.31.9.71h3.35c-.13-2.25-1.97-4.04-4.25-4.04s-4.12,1.79-4.25,4.04h3.35Z"/>
      <path class="cls-1" d="M21.76,14.12c-.11.41-.46.71-.9.71s-.79-.31-.9-.71h-3.35c.13,2.25,1.97,4.04,4.25,4.04s4.12-1.79,4.25-4.04h-3.35Z"/>
    </g>
    <g>
      <path class="cls-1" d="M10.46,13.65c.11-.41.46-.71.9-.71s.79.31.9.71h3.35c-.13-2.25-1.97-4.04-4.25-4.04s-4.12,1.79-4.25,4.04h3.35Z"/>
      <path class="cls-1" d="M12.26,14.12c-.11.41-.46.71-.9.71s-.79-.31-.9-.71h-3.35c.13,2.25,1.97,4.04,4.25,4.04s4.12-1.79,4.25-4.04h-3.35Z"/>
    </g>
    <g>
      <path class="cls-1" d="M29.45,13.65c.11-.41.46-.71.9-.71s.79.31.9.71h3.35c-.13-2.25-1.97-4.04-4.25-4.04s-4.12,1.79-4.25,4.04h3.35Z"/>
      <path class="cls-1" d="M31.25,14.12c-.11.41-.46.71-.9.71s-.79-.31-.9-.71h-3.35c.13,2.25,1.97,4.04,4.25,4.04s4.12-1.79,4.25-4.04h-3.35Z"/>
    </g>
  </g>
</svg>