<?xml version="1.0" encoding="UTF-8"?>
<svg id="Layer_2" xmlns="http://www.w3.org/2000/svg" viewBox="0 0 107.63 54.26">
  <defs>
    <style>
      .cls-1 {
        fill: #98c860;
      }

      .cls-2 {
        fill: #80b048;
      }

      .cls-3 {
        fill: #b0e078;
      }
    </style>
  </defs>
  <g id="Layer_1-2" data-name="Layer_1">
    <rect class="cls-1" x="0" width="107.62" height="54.26"/>
    <g>
      <polygon class="cls-3" points="23.69 12.94 20.94 12.94 20.94 15.69 22.32 15.69 22.32 17.06 25.07 17.06 25.07 14.32 23.69 14.32 23.69 12.94"/>
      <polygon class="cls-3" points="30.56 12.94 30.56 14.32 29.19 14.32 29.19 11.56 27.91 11.56 27.84 11.56 27.84 10.06 26.35 10.06 26.35 11.56 25.14 11.56 25.14 14.33 26.35 14.33 26.35 15.81 27.84 15.81 27.84 14.33 27.91 14.33 29.19 14.33 29.19 17.06 31.94 17.06 31.94 15.69 33.31 15.69 33.31 12.94 30.56 12.94"/>
    </g>
    <g>
      <polygon class="cls-2" points="50.32 12.94 47.57 12.94 47.57 15.69 48.95 15.69 48.95 17.06 51.69 17.06 51.69 14.32 50.32 14.32 50.32 12.94"/>
      <polygon class="cls-2" points="57.19 12.94 57.19 14.32 55.82 14.32 55.82 11.56 54.54 11.56 54.47 11.56 54.47 10.06 52.98 10.06 52.98 11.56 51.77 11.56 51.77 14.33 52.98 14.33 52.98 15.81 54.47 15.81 54.47 14.33 54.54 14.33 55.82 14.33 55.82 17.06 58.56 17.06 58.56 15.69 59.94 15.69 59.94 12.94 57.19 12.94"/>
    </g>
    <g>
      <polygon class="cls-3" points="10.02 40.07 7.27 40.07 7.27 42.82 8.65 42.82 8.65 44.19 11.4 44.19 11.4 41.44 10.02 41.44 10.02 40.07"/>
      <polygon class="cls-3" points="16.89 40.07 16.89 41.44 15.52 41.44 15.52 38.68 14.24 38.68 14.17 38.68 14.17 37.19 12.68 37.19 12.68 38.68 11.47 38.68 11.47 41.46 12.68 41.46 12.68 42.94 14.17 42.94 14.17 41.46 14.24 41.46 15.52 41.46 15.52 44.19 18.27 44.19 18.27 42.82 19.64 42.82 19.64 40.07 16.89 40.07"/>
    </g>
    <g>
      <polygon class="cls-2" points="36.9 40.07 34.15 40.07 34.15 42.82 35.53 42.82 35.53 44.19 38.27 44.19 38.27 41.44 36.9 41.44 36.9 40.07"/>
      <polygon class="cls-2" points="43.77 40.07 43.77 41.44 42.4 41.44 42.4 38.68 41.12 38.68 41.05 38.68 41.05 37.19 39.56 37.19 39.56 38.68 38.34 38.68 38.34 41.46 39.56 41.46 39.56 42.94 41.05 42.94 41.05 41.46 41.12 41.46 42.4 41.46 42.4 44.19 45.14 44.19 45.14 42.82 46.52 42.82 46.52 40.07 43.77 40.07"/>
    </g>
    <g>
      <polygon class="cls-3" points="63.88 40.07 61.14 40.07 61.14 42.82 62.51 42.82 62.51 44.19 65.26 44.19 65.26 41.44 63.88 41.44 63.88 40.07"/>
      <polygon class="cls-3" points="70.75 40.07 70.75 41.44 69.38 41.44 69.38 38.68 68.1 38.68 68.04 38.68 68.04 37.19 66.54 37.19 66.54 38.68 65.33 38.68 65.33 41.46 66.54 41.46 66.54 42.94 68.04 42.94 68.04 41.46 68.1 41.46 69.38 41.46 69.38 44.19 72.13 44.19 72.13 42.82 73.5 42.82 73.5 40.07 70.75 40.07"/>
    </g>
    <g>
      <polygon class="cls-3" points="77.45 12.94 74.7 12.94 74.7 15.69 76.07 15.69 76.07 17.06 78.82 17.06 78.82 14.32 77.45 14.32 77.45 12.94"/>
      <polygon class="cls-3" points="84.32 12.94 84.32 14.32 82.94 14.32 82.94 11.56 81.67 11.56 81.6 11.56 81.6 10.06 80.11 10.06 80.11 11.56 78.89 11.56 78.89 14.33 80.11 14.33 80.11 15.81 81.6 15.81 81.6 14.33 81.67 14.33 82.94 14.33 82.94 17.06 85.69 17.06 85.69 15.69 87.07 15.69 87.07 12.94 84.32 12.94"/>
    </g>
    <g>
      <polygon class="cls-2" points="90.62 40.07 87.87 40.07 87.87 42.82 89.25 42.82 89.25 44.19 91.99 44.19 91.99 41.44 90.62 41.44 90.62 40.07"/>
      <polygon class="cls-2" points="97.49 40.07 97.49 41.44 96.12 41.44 96.12 38.68 94.84 38.68 94.77 38.68 94.77 37.19 93.28 37.19 93.28 38.68 92.06 38.68 92.06 41.46 93.28 41.46 93.28 42.94 94.77 42.94 94.77 41.46 94.84 41.46 96.12 41.46 96.12 44.19 98.86 44.19 98.86 42.82 100.24 42.82 100.24 40.07 97.49 40.07"/>
    </g>
    <g>
      <polygon class="cls-2" points="104.22 12.94 101.47 12.94 101.47 15.69 102.84 15.69 102.84 17.06 105.59 17.06 105.59 14.32 104.22 14.32 104.22 12.94"/>
      <polygon class="cls-2" points="106.88 10.06 106.88 11.56 105.66 11.56 105.66 14.33 106.88 14.33 106.88 15.81 107.58 15.81 107.58 14.33 107.58 14.32 107.58 11.56 107.62 11.56 107.62 10.06 106.88 10.06"/>
    </g>
    <polygon class="cls-2" points="3.46 12.94 3.46 14.32 2.09 14.32 2.09 11.56 .81 11.56 .75 11.56 .75 10.06 0 10.06 0 11.56 0 14.32 0 14.33 0 15.81 .75 15.81 .75 14.33 .81 14.33 2.09 14.33 2.09 17.06 4.84 17.06 4.84 15.69 6.21 15.69 6.21 12.94 3.46 12.94"/>
  </g>
</svg>